<svg preserveAspectRatio="none" overflow="visible" style="display: block;" width="24" height="24" viewBox="0 0 24 24" fill="none" xmlns="http://www.w3.org/2000/svg">
<g id="copy_all">
<g>
<path id="copy_all_2" d="M3.49997 17.9615V16.3462H5.11547V17.9615H3.49997ZM3.49997 14.423V12.8077H5.11547V14.423H3.49997ZM3.49997 10.8845V9.26925H5.11547V10.8845H3.49997ZM7.03847 21.5V19.8845H8.65372V21.5H7.03847ZM9.15372 17.6537C8.64872 17.6537 8.22122 17.4787 7.87122 17.1287C7.52122 16.7787 7.34622 16.3512 7.34622 15.8462V4.30775C7.34622 3.80258 7.52122 3.375 7.87122 3.025C8.22122 2.675 8.64872 2.5 9.15372 2.5H17.6922C18.1974 2.5 18.625 2.675 18.975 3.025C19.325 3.375 19.5 3.80258 19.5 4.30775V15.8462C19.5 16.3512 19.325 16.7787 18.975 17.1287C18.625 17.4787 18.1974 17.6537 17.6922 17.6537H9.15372ZM9.15372 16.1537H17.6922C17.7692 16.1537 17.8397 16.1217 17.9037 16.0577C17.9679 15.9936 18 15.9231 18 15.8462V4.30775C18 4.23075 17.9679 4.16025 17.9037 4.09625C17.8397 4.03208 17.7692 4 17.6922 4H9.15372C9.07689 4 9.00639 4.03208 8.94222 4.09625C8.87822 4.16025 8.84622 4.23075 8.84622 4.30775V15.8462C8.84622 15.9231 8.87822 15.9936 8.94222 16.0577C9.00639 16.1217 9.07689 16.1537 9.15372 16.1537ZM10.577 21.5V19.8845H12.1922V21.5H10.577ZM5.11547 21.5C4.67114 21.5 4.29081 21.3418 3.97447 21.0255C3.65814 20.7092 3.49997 20.3288 3.49997 19.8845H5.11547V21.5ZM14.1155 21.5V19.8845H15.7307C15.7307 20.332 15.5726 20.7131 15.2562 21.0277C14.9399 21.3426 14.5596 21.5 14.1155 21.5ZM3.49997 7.346C3.49997 6.90183 3.65814 6.52158 3.97447 6.20525C4.29081 5.88891 4.67114 5.73075 5.11547 5.73075V7.346H3.49997Z" fill="white"/>
</g>
</g>
</svg>
